<?xml version="1.0" standalone="no"?><!DOCTYPE svg PUBLIC "-//W3C//DTD SVG 1.1//EN" "http://www.w3.org/Graphics/SVG/1.1/DTD/svg11.dtd"><svg t="1729612102496" class="icon" viewBox="0 0 1024 1024" version="1.1" xmlns="http://www.w3.org/2000/svg" p-id="1510" xmlns:xlink="http://www.w3.org/1999/xlink" width="50" height="50"><path d="M512 0c235.690667 0 426.496 174.250667 426.666667 389.12a362.325333 362.325333 0 0 1-64.853334 206.421333 114.688 114.688 0 0 1-3.498666 5.888c-44.8 71.850667-158.122667 161.706667-231.082667 245.248-80.554667 91.989333-118.954667 174.421333-118.954667 174.421334a13.056 13.056 0 0 1-16.384 0s-47.445333-87.637333-133.973333-188.074667c-67.413333-78.250667-170.496-162.304-216.064-231.68a303.872 303.872 0 0 1-4.266667-6.997333 361.898667 361.898667 0 0 1-64.085333-205.141334C85.504 174.250667 276.48 0 512 0z m-54.954667 521.045333a790.016 790.016 0 0 1-144.384 35.84l6.144 43.776a862.72 862.72 0 0 0 138.24-37.205333v-42.410667z m-78.336-311.466666c-15.36 47.274667-33.28 89.770667-53.76 128.256a35.242667 35.242667 0 0 1-17.066666 15.274666l10.069333 37.546667c21.845333-3.413333 42.837333-6.485333 63.402667-9.557333-19.285333 36.266667-34.986667 61.610667-47.701334 76.544a66.133333 66.133333 0 0 1-18.346666 11.776l10.922666 37.546666c34.986667-5.12 72.618667-15.701333 112.384-30.549333v-37.205333a560.042667 560.042667 0 0 1-64.682666 21.504c23.637333-32.853333 52.48-85.76 87.466666-158.378667l-36.352-13.482667c-8.704 19.2-17.493333 37.546667-25.344 54.613334-14.421333 2.56-28.842667 4.864-43.690666 6.570666 20.992-32.426667 41.045333-73.898667 61.184-125.44l-38.4-14.933333zM546.645333 445.44l-21.845333 31.914667c42.410667 11.434667 83.541333 26.282667 123.733333 45.482666l20.565334-31.488a758.442667 758.442667 0 0 0-122.453334-45.909333z m-52.906666 69.973333l-23.637334 34.56c66.56 16.213333 130.816 38.485333 193.365334 66.56l21.845333-34.645333a1197.482667 1197.482667 0 0 0-191.573333-66.474667z m36.693333-305.237333a250.026667 250.026667 0 0 1-75.093333 121.173333l26.197333 34.133334c11.349333-10.581333 22.186667-21.930667 32.341333-33.706667 13.141333 14.848 27.562667 28.842667 43.264 42.837333-32.426667 25.344-69.973333 44.202667-111.957333 57.258667l20.565333 36.693333a383.402667 383.402667 0 0 0 123.306667-67.669333c31.914667 23.978667 67.413333 44.544 106.666667 62.037333l21.930666-37.546666a573.098667 573.098667 0 0 1-99.242666-51.626667c24.490667-25.344 45.482667-55.552 62.976-89.6v-33.706667h-120.32c4.437333-11.008 7.936-22.784 11.434666-34.986666l-41.984-5.290667z m55.125333 139.52a401.493333 401.493333 0 0 1-50.346666-47.701333c2.304-3.925333 4.437333-7.850667 7.082666-11.776h91.392a353.365333 353.365333 0 0 1-48.128 59.477333z" fill="#F04134" p-id="1511"></path></svg>