<?xml version="1.0" standalone="no"?><!DOCTYPE svg PUBLIC "-//W3C//DTD SVG 1.1//EN" "http://www.w3.org/Graphics/SVG/1.1/DTD/svg11.dtd"><svg t="1729612125113" class="icon" viewBox="0 0 1024 1024" version="1.1" xmlns="http://www.w3.org/2000/svg" p-id="2815" xmlns:xlink="http://www.w3.org/1999/xlink" width="50" height="50"><path d="M512 0C288.768 0 107.789474 178.337684 107.789474 398.282105c0 16.976842 1.455158 33.576421 3.503158 49.960421 0.538947 3.934316 1.185684 7.814737 1.832421 11.749053 2.209684 14.066526 5.173895 27.917474 8.838736 41.445053 0.538947 1.994105 0.970105 4.042105 1.562948 6.03621a392.353684 392.353684 0 0 0 41.391158 94.261895c0.700632 1.509053 1.778526 3.395368 2.640842 5.12 1.616842 3.233684 3.449263 6.682947 5.658947 10.671158 1.131789 2.101895 2.371368 4.149895 3.718737 6.413473 2.802526 4.742737 5.982316 9.916632 9.593263 15.413895 1.347368 2.101895 2.533053 3.988211 4.042105 6.197895 5.443368 8.030316 11.533474 16.545684 18.755369 25.707789l0.646737 0.808421c6.790737 8.623158 14.659368 17.731368 23.174737 27.162948 2.479158 2.748632 5.12 5.443368 7.706947 8.245895 7.114105 7.545263 14.821053 15.198316 23.066947 23.066947 3.233684 3.072 6.305684 6.036211 9.754948 9.162105 11.749053 10.671158 24.198737 21.504 38.265263 32.498526 54.864842 42.954105 125.844211 102.992842 153.168842 184.643369 0 0 13.581474 60.631579 34.061474 67.152842h25.546105c20.48-6.521263 34.061474-67.152842 34.061474-67.152842 27.324632-81.650526 98.304-141.743158 153.168842-184.643369 14.066526-10.994526 26.516211-21.773474 38.265263-32.444631 3.449263-3.179789 6.575158-6.197895 9.862737-9.32379 8.192-7.760842 15.791158-15.36 22.851368-22.797473 2.694737-2.856421 5.443368-5.712842 7.976421-8.515369 8.299789-9.162105 15.898947-18.054737 22.581895-26.462315l1.239579-1.455158c7.168-9.162105 13.204211-17.569684 18.647579-25.546106l4.096-6.251789c3.610947-5.551158 6.898526-10.778947 9.701052-15.575579 1.239579-2.155789 2.425263-4.096 3.503158-6.090105 2.479158-4.473263 4.527158-8.353684 6.305685-11.910737l1.994105-3.880421c17.731368-29.264842 31.797895-60.793263 41.498947-94.261895 0.592842-2.048 1.024-4.149895 1.616842-6.197895 3.664842-13.527579 6.629053-27.324632 8.838737-41.337263 0.646737-3.934316 1.293474-7.814737 1.832421-11.802947 1.994105-16.437895 3.449263-33.091368 3.449263-50.068211C916.210526 178.337684 735.232 0 512 0z m18.324211 192.242526h193.374315v177.205895H578.236632v123.904c0 14.551579 7.545263 22.096842 22.635789 22.63579h73.242947c15.090526 0 25.330526-5.928421 30.181053-17.246316 3.772632-10.24 6.467368-31.258947 8.623158-62.464l36.648421 12.395789c-3.233684 43.654737-9.701053 72.165053-18.324211 85.09979-8.084211 12.934737-24.791579 19.941053-50.06821 19.941052h-95.932632c-30.72 0-45.756632-15.629474-45.756631-46.295579V332.314947h146.539789V228.352H530.324211v-36.109474z m223.555368 449.266527H635.365053c-126.059789 0-205.231158-7.545263-236.490106-22.096842-27.486316-12.934737-51.685053-36.109474-72.165052-68.392422-8.623158 36.109474-19.402105 69.470316-33.414737 100.729264l-29.642105-26.408421c26.947368-62.464 42.037895-133.066105 44.732631-211.159579l35.031579 4.311579c-1.077895 30.72-3.772632 59.769263-8.08421 87.794526 16.168421 30.181053 34.492632 52.762947 55.996631 67.853474V379.688421H280.899368v-35.570526h98.573474V264.946526H290.600421v-35.570526h88.872421V156.725895h38.804211v72.704H504.454737v35.570526H418.277053v79.171368H511.461053v35.570527H428.517053v75.937684H504.993684v35.570526H428.517053v101.268211c33.414737 9.162105 99.651368 14.012632 198.224842 14.012631 59.769263 0 104.501895-1.077895 133.605052-2.694736l-6.467368 37.672421z" fill="#20AF70" p-id="2816"></path></svg>